<svg width="24" height="24" viewBox="0 0 24 24" fill="none" xmlns="http://www.w3.org/2000/svg">
  <path d="M12 2C6.48 2 2 6.48 2 12s4.48 10 10 10 10-4.48 10-10S17.52 2 12 2zm4.64 6.8c-.15 1.58-.8 5.42-1.13 7.19-.14.75-.42 1-.68 1.03-.58.05-1.02-.38-1.58-.75-.88-.58-1.38-.94-2.23-1.5-.99-.65-.35-1.01.22-1.59.15-.15 2.71-2.48 2.76-2.69.01-.03.01-.14-.07-.2-.08-.06-.19-.04-.27-.02-.11.02-1.87 1.19-5.28 3.5-.5.35-.95.52-1.35.51-.45-.01-1.32-.25-1.97-.46-.79-.26-1.42-.4-1.36-.85.03-.22.32-.44.88-.67 3.48-1.51 5.8-2.51 6.97-3.01 3.33-1.42 4.02-1.67 4.47-1.68.1 0 .33.02.48.15.12.1.15.24.17.34z" fill="white"/>
</svg>
